<?xml version="1.0" encoding="UTF-8"?>
<!-- Generated by Pixelmator Pro 3.7.1 -->
<svg width="1024" height="512" viewBox="0 0 1024 512" xmlns="http://www.w3.org/2000/svg">
    <path id="COTT---------FILMS-copy-6" fill="#ffffff" fill-rule="evenodd" stroke="none" d="M 875.501221 461.664978 C 902.918457 475.797546 928.074341 477.210785 939.380432 476.362885 C 977.255676 474.384308 1000.433167 448.663025 1000.433167 415.027466 C 1000.433167 382.805237 973.298645 364.715546 941.924255 353.126831 C 930.335449 349.169739 920.44281 344.08197 919.312073 332.775879 C 918.464233 321.469849 924.96521 311.011719 939.380432 310.163757 C 945.598755 309.881134 958.318054 309.598511 980.647522 318.643372 L 985.735229 279.63739 C 959.731262 270.59259 945.881409 270.59259 935.423218 271.157898 C 901.78772 272.853821 878.327698 298.857697 878.327698 332.775879 C 878.327698 366.694092 906.592773 382.805237 938.249878 394.393921 C 949.555786 398.351044 958.318054 403.438782 959.166077 415.027466 C 960.296631 426.050903 950.121155 434.530457 938.249878 435.378418 C 928.922241 436.226318 903.766296 435.661041 880.588806 419.267273 L 875.501221 461.664978 Z M 399.86319 272.571106 L 399.86319 312.990326 L 339.375824 312.990326 L 339.375824 353.409485 L 390.81839 353.409485 L 390.81839 393.828613 L 339.375824 393.828613 L 339.375824 474.666962 L 298.956818 474.666962 L 298.956818 272.571106 L 399.86319 272.571106 Z M 487.983002 272.571106 L 487.983002 474.666962 L 447.563965 474.666962 L 447.563965 272.571106 L 487.983002 272.571106 Z M 749.764343 372.562347 L 657.054504 269.461975 L 657.054504 434.714569 L 656.723145 434.247803 L 573.909119 434.247803 L 573.909119 272.571106 L 533.489929 272.571106 L 533.489929 474.666901 L 657.054504 474.666901 L 657.054504 474.666962 L 698.039063 474.666962 L 698.039063 370.497681 L 749.764343 424.766724 L 801.489441 370.497681 L 801.206909 474.666962 L 842.191345 474.666962 L 842.191345 269.461975 L 749.764343 372.562347 Z M 282.756683 248.502716 C 421.821136 248.502716 421.821136 40.188599 282.756683 40.188599 C 143.692078 40.188599 143.692078 248.502716 282.756683 248.502716 Z M 186.645767 53.415802 C 186.645767 53.415802 177.4758 63.524414 173.732758 69.198364 C 169.323196 75.88269 162.626877 90.500519 162.626877 90.500519 C 154.995239 86.543396 142.232864 81.738342 124.708481 81.738342 C 44.718143 81.738342 44.718143 204.974426 124.708481 204.974426 C 142.232864 204.974426 153.213242 199.886658 160.844879 195.929535 C 160.844879 195.929535 166.883484 209.375824 170.863205 215.545837 C 175.335327 222.479248 186.302139 234.892426 186.302139 234.892426 C 154.473801 251.663757 138.84111 251.980591 124.708481 251.980591 C -12.377465 251.980591 -12.094783 36.732208 124.708481 36.732208 C 138.84111 36.732208 168.020966 41.27829 186.645767 53.415802 Z M 487.224091 83.999603 L 487.224091 245.676208 L 446.804901 245.676208 L 446.804901 83.999603 L 399.36261 83.999603 C 399.36261 83.999603 392.33493 69.723572 387.514832 63.459259 C 381.864044 56.115326 367.797485 43.863098 367.797485 43.863098 L 624.927002 43.863098 L 624.927002 83.999603 L 574.61499 83.999603 L 574.61499 245.676208 L 534.19574 245.676208 L 534.19574 83.999603 L 487.224091 83.999603 Z M 282.756683 206.670288 C 201.918228 206.670288 201.918228 81.738342 282.756683 81.738342 C 363.59491 81.738342 363.59491 206.670288 282.756683 206.670288 Z"/>
</svg>
