<?xml version="1.0" encoding="UTF-8"?>
<!-- Generated by Pixelmator Pro 3.7.1 -->
<svg width="1024" height="512" viewBox="0 0 1024 512" xmlns="http://www.w3.org/2000/svg">
    <path id="COTT---------FILMS-copy-6" fill="#ffffff" fill-rule="evenodd" stroke="none" d="M 875.47229 461.664978 C 902.88855 475.797546 928.04364 477.210785 939.349304 476.362885 C 977.223267 474.384308 1000.399963 448.663025 1000.399963 415.027466 C 1000.399963 382.805237 973.266357 364.715546 941.893005 353.126831 C 930.304688 349.169739 920.412354 344.08197 919.281677 332.775879 C 918.433838 321.469849 924.93457 311.011719 939.349304 310.163757 C 945.567444 309.881134 958.286316 309.598511 980.61499 318.643372 L 985.702576 279.63739 C 959.699463 270.59259 945.850098 270.59259 935.392273 271.157898 C 901.757874 272.853821 878.298706 298.857697 878.298706 332.775879 C 878.298706 366.694092 906.562805 382.805237 938.218811 394.393921 C 949.524292 398.351044 958.286316 403.438782 959.134338 415.027466 C 960.264832 426.050903 950.089661 434.530457 938.218811 435.378418 C 928.891479 436.226318 903.736389 435.661041 880.559692 419.267273 Z M 399.850342 272.571106 L 399.850342 312.990326 L 339.365051 312.990326 L 339.365051 353.409485 L 390.805878 353.409485 L 390.805878 393.828613 L 339.365051 393.828613 L 339.365051 474.666962 L 298.947418 474.666962 L 298.947418 272.571106 Z M 487.967194 272.571106 L 487.967194 474.666962 L 447.54953 474.666962 L 447.54953 272.571106 Z M 749.739685 372.562347 L 657.032959 269.461975 L 657.032959 434.714569 L 656.701599 434.247803 L 573.890442 434.247803 L 573.890442 272.571106 L 533.472595 272.571106 L 533.472595 474.666901 L 657.032959 474.666901 L 657.032959 474.666962 L 698.016174 474.666962 L 698.016174 370.497681 L 749.739685 424.766724 L 801.463013 370.497681 L 801.180542 474.666962 L 842.163513 474.666962 L 842.163513 269.461975 Z M 287.747833 248.502716 C 426.807587 248.502716 426.807587 40.188599 287.747833 40.188599 C 148.687958 40.188599 148.687958 248.502716 287.747833 248.502716 Z M 186.640182 53.415802 C 186.640182 53.415802 162.622116 90.500519 162.622116 90.500519 C 154.990738 86.543396 142.22879 81.738342 124.704987 81.738342 C 44.717373 81.738342 44.717373 204.974426 124.704987 204.974426 C 142.22879 204.974426 153.208786 199.886658 160.840179 195.929535 C 160.840179 195.929535 186.29657 234.892426 186.29657 234.892426 C 154.469315 251.663757 138.837158 251.980591 124.704987 251.980591 C -12.376319 251.980591 -12.093646 36.732208 124.704987 36.732208 C 138.837158 36.732208 168.016022 41.27829 186.640182 53.415802 Z M 487.208313 83.999603 L 487.208313 245.676208 L 446.790497 245.676208 L 446.790497 83.999603 L 399.349854 83.999603 C 399.349854 83.999603 398.784698 43.863098 398.784698 43.863098 L 624.906555 43.863098 L 624.906555 83.999603 L 574.596252 83.999603 L 574.596252 245.676208 L 534.178345 245.676208 L 534.178345 83.999603 Z M 287.747833 206.670288 C 206.912125 206.670288 206.912125 81.738342 287.747833 81.738342 C 368.583344 81.738342 368.583344 206.670288 287.747833 206.670288 Z"/>
</svg>
