<?xml version="1.0" encoding="UTF-8"?>
<!-- Generated by Pixelmator Pro 3.7.1 -->
<svg width="2048" height="512" viewBox="0 0 2048 512" xmlns="http://www.w3.org/2000/svg">
    <path id="COTT---------FILMS-copy-6" fill="#ffffff" fill-rule="evenodd" stroke="none" d="M 1830.862183 375.514893 C 1871.272705 396.34494 1908.349976 398.427917 1925.01416 397.178192 C 1980.838623 394.261963 2015 356.351227 2015 306.775604 C 2015 259.283081 1975.006226 232.620605 1928.763428 215.539948 C 1911.682617 209.70755 1897.101929 202.208679 1895.435425 185.544556 C 1894.185669 168.880524 1903.767578 153.466248 1925.01416 152.216431 C 1934.179443 151.799896 1952.92627 151.383331 1985.837769 164.714569 L 1993.33667 107.22345 C 1955.009399 93.892303 1934.596069 93.892303 1919.181641 94.725494 C 1869.606079 97.225128 1835.02832 135.552368 1835.02832 185.544556 C 1835.02832 235.536804 1876.688354 259.283081 1923.3479 276.363708 C 1940.011719 282.196136 1952.92627 289.694977 1954.176392 306.775604 C 1955.842773 323.023102 1940.844849 335.521179 1923.3479 336.770996 C 1909.599854 338.020691 1872.522339 337.187531 1838.360962 313.024658 L 1830.862183 375.514893 Z M 1176.981812 96.808441 L 1176.981812 156.382538 L 1087.829102 156.382538 L 1087.829102 215.956543 L 1163.650757 215.956543 L 1163.650757 275.530518 L 1087.829102 275.530518 L 1087.829102 394.678558 L 1028.255371 394.678558 L 1028.255371 96.808441 L 1176.981812 96.808441 Z M 1281.805542 96.808441 L 1281.805542 394.678558 L 1222.231934 394.678558 L 1222.231934 96.808441 L 1281.805542 96.808441 Z M 1645.537964 244.186035 L 1508.892578 92.225891 L 1508.892578 335.792542 L 1508.404053 335.104553 L 1386.344238 335.104553 L 1386.344238 96.808441 L 1326.770142 96.808441 L 1326.770142 394.678467 L 1508.892578 394.678467 L 1508.892578 394.678558 L 1569.299805 394.678558 L 1569.299805 241.142914 L 1645.537964 321.130341 L 1721.776001 241.142914 L 1721.359497 394.678558 L 1781.766479 394.678558 L 1781.766479 92.225891 L 1645.537964 244.186035 Z M 417.763763 398.858215 C 622.731567 398.858215 622.731567 91.822937 417.763763 91.822937 C 212.795685 91.822937 212.795685 398.858215 417.763763 398.858215 Z M 276.105316 111.318573 C 276.105316 111.318573 262.589722 126.217712 257.072754 134.580566 C 250.573502 144.432648 240.703796 165.977936 240.703796 165.977936 C 229.45546 160.145508 210.644913 153.063324 184.815674 153.063324 C 66.91748 153.063324 66.91748 334.70163 184.815674 334.70163 C 210.644913 334.70163 226.828995 327.202728 238.07724 321.3703 C 238.07724 321.3703 246.9776 341.188843 252.843369 350.282898 C 259.434814 360.502075 275.598846 378.797913 275.598846 378.797913 C 228.686951 403.517273 205.645844 403.984253 184.815674 403.984253 C -17.236038 403.984253 -16.819391 86.728546 184.815674 86.728546 C 205.645844 86.728546 248.654099 93.429016 276.105316 111.318573 Z M 719.129333 156.39621 L 719.129333 394.6922 L 659.555298 394.6922 L 659.555298 156.39621 L 589.629822 156.39621 C 589.629822 156.39621 579.271667 135.354706 572.167297 126.121674 C 563.838501 115.297424 543.105774 97.2388 543.105774 97.2388 L 922.090271 97.2388 L 922.090271 156.39621 L 847.935242 156.39621 L 847.935242 394.6922 L 788.361145 394.6922 L 788.361145 156.39621 L 719.129333 156.39621 Z M 417.763763 337.201172 C 298.615479 337.201172 298.615479 153.063324 417.763763 153.063324 C 536.911621 153.063324 536.911621 337.201172 417.763763 337.201172 Z"/>
</svg>
